<?xml version="1.0" encoding="UTF-8"?>
<svg id="Layer_2" data-name="Layer 2" xmlns="http://www.w3.org/2000/svg" viewBox="0 0 280.72 152.85">
  <defs>
    <style>
      .cls-1 {
        letter-spacing: 0em;
      }

      .cls-2 {
        letter-spacing: .02em;
      }

      .cls-3 {
        letter-spacing: 0em;
      }

      .cls-4 {
        font-family: AcuminConcept-ExtraCondSemibold, 'Acumin Variable Concept';
        font-size: 28.93px;
        font-variation-settings: 'wght' 600, 'wdth' 50, 'slnt' 0;
        font-weight: 600;
      }

      .cls-4, .cls-5 {
        fill: #fff;
      }

      .cls-6 {
        letter-spacing: .01em;
      }

      .cls-7 {
        letter-spacing: 0em;
      }

      .cls-8 {
        letter-spacing: 0em;
      }

      .cls-9 {
        letter-spacing: 0em;
      }

      .cls-10 {
        font-family: Poppins-Medium, Poppins;
        font-size: 16.35px;
        font-weight: 500;
      }

      .cls-10, .cls-11 {
        fill: #f5e4d7;
      }

      .cls-12 {
        letter-spacing: .02em;
      }

      .cls-13 {
        letter-spacing: .03em;
      }

      .cls-14 {
        letter-spacing: 0em;
      }

      .cls-15 {
        letter-spacing: .01em;
      }

      .cls-16 {
        letter-spacing: 0em;
      }

      .cls-17 {
        fill: none;
        stroke: #bf9f6d;
        stroke-miterlimit: 10;
        stroke-width: 3px;
      }

      .cls-18 {
        letter-spacing: 0em;
      }
    </style>
  </defs>
  <g id="Layer_1-2" data-name="Layer 1">
    <g>
      <g>
        <path class="cls-11" d="M.25,118.78v-10.37s.04-.04.06-.09c.19-.7.82-1.21,1.57-1.21h15.19c.83,0,1.45.58,1.63,1.39v10.16c-.15.82-.79,1.42-1.63,1.42H1.88c-.75,0-1.38-.5-1.57-1.2-.01-.05-.03-.07-.06-.09ZM10.61,114.38l6.23-6.2H2.1s6.24,6.2,6.24,6.2c.65.61,1.62.62,2.27,0ZM5.99,113.59l-4.66-4.64v9.28s4.66-4.64,4.66-4.64ZM17.6,118.23v-9.27s-4.66,4.64-4.66,4.64l4.66,4.63ZM12.17,114.36l-.81.8c-1.05,1.04-2.74,1.04-3.79,0l-.81-.8-4.66,4.63h14.74s-4.67-4.63-4.67-4.63Z"/>
        <g>
          <text class="cls-10" transform="translate(20.03 95.99)"><tspan x="0" y="0" xml:space="preserve"> @bonafidebakes.co</tspan></text>
          <g>
            <path class="cls-11" d="M14.08,82.06s.09.04.14.04c1.81.3,3.14,1.7,3.4,3.53v8.91c-.27,1.9-1.67,3.3-3.57,3.57H5.13c-1.83-.26-3.23-1.59-3.53-3.4,0-.06,0-.11-.04-.14v-8.96c.29-1.89,1.67-3.28,3.57-3.56h8.96ZM13.62,96.79c1.49,0,2.66-1.22,2.66-2.68v-8.03c0-1.48-1.2-2.68-2.68-2.68H5.58c-1.48,0-2.68,1.2-2.68,2.68v8.02c0,1.48,1.2,2.68,2.68,2.68h8.04Z"/>
            <path class="cls-11" d="M9.12,86.11c2.22-.26,4.2,1.34,4.46,3.52s-1.32,4.2-3.52,4.46c-2.19.26-4.18-1.31-4.45-3.5s1.29-4.22,3.52-4.48ZM9.33,87.44c-1.5.15-2.56,1.48-2.41,2.94s1.46,2.52,2.92,2.38c1.47-.14,2.55-1.45,2.41-2.92s-1.43-2.55-2.92-2.41Z"/>
            <path class="cls-11" d="M13.77,84.76c.57-.1,1.07.28,1.16.81s-.27,1.07-.83,1.16c-.52.08-1.04-.26-1.14-.8s.23-1.08.81-1.18Z"/>
          </g>
        </g>
        <g>
          <path class="cls-11" d="M9.35,145.1h-1.9s-.06-.04-.09-.04c-.16.03-.28-.01-.43-.03-1.23-.14-2.63-.41-3.69-1.03-.15-.09-.23-.24-.24-.41v-2.53s-.53-3.16-.53-3.16c-1.26-.46-2.16-1.54-2.41-2.86-.01-.06-.01-.12-.05-.15v-1.05s.04-.09.05-.14c.37-2,2.23-3.35,4.25-3.06.76-1.29,2.06-2.12,3.55-2.31.37-.03.72-.03,1.08,0,1.49.19,2.79,1.02,3.55,2.32,2.1-.3,4,1.17,4.28,3.27.03.31.03.62,0,.94-.2,1.4-1.11,2.57-2.44,3.06l-.53,3.15v2.49c0,.21-.1.37-.28.47-1.09.61-2.41.86-3.65,1-.14.02-.26.06-.4.03-.05,0-.1.01-.13.04ZM12.9,140.51l.51-3.06c.03-.2.17-.33.36-.39,1.37-.39,2.22-1.73,2-3.13-.22-1.35-1.4-2.36-2.79-2.34s-2.54,1.04-2.72,2.42c-.04.27-.31.44-.55.4-.28-.04-.46-.28-.42-.57.18-1.29,1-2.38,2.21-2.93-.71-1.03-1.88-1.63-3.11-1.63-1.23,0-2.39.61-3.09,1.63,1.21.55,2.03,1.64,2.21,2.93.04.29-.14.53-.42.57-.24.04-.51-.13-.55-.4-.19-1.39-1.37-2.41-2.75-2.42s-2.58,1.02-2.78,2.39.65,2.7,2.01,3.09c.19.05.32.2.36.39l.51,3.06h9ZM10.96,143.88c.67-.14,1.27-.3,1.87-.59v-1.8s-8.86,0-8.86,0v1.8c.61.3,1.22.46,1.88.6,1.69.31,3.39.31,5.1,0Z"/>
          <path class="cls-11" d="M6.91,138.92c.07.29-.12.54-.37.59s-.52-.09-.59-.36l-.33-1.34c-.07-.27.1-.51.36-.58.23-.06.52.07.59.34l.34,1.35Z"/>
          <path class="cls-11" d="M10.85,139.14c-.07.28-.33.43-.59.37s-.44-.31-.37-.58l.34-1.36c.06-.26.34-.39.58-.33s.44.31.37.58l-.33,1.32Z"/>
          <path class="cls-11" d="M8.89,139.02c0,.31-.24.51-.51.5s-.48-.23-.48-.52v-1.25c0-.29.21-.52.48-.52.29,0,.51.22.51.52v1.27Z"/>
        </g>
        <text class="cls-10" transform="translate(16.58 143.34)"><tspan x="0" y="0" xml:space="preserve"> +91 9900955225</tspan></text>
        <text class="cls-10" transform="translate(21.88 119.17)"><tspan x="0" y="0" xml:space="preserve"> bonafidebakes.co@gmail.com</tspan></text>
      </g>
      <g>
        <g>
          <path class="cls-5" d="M18.73,12.02l-3.13.03v1.64s2.77.03,2.77.03l-.75,4.15-.74,3.9c-.34,1.81-.65,3.6-1.08,5.39-.62,2.58-1.5,5.3-2.91,7.55-.41.66-.86,1.22-1.39,1.8-1.28,1.4-2.92,2.33-4.74,2.75H1.87c0-.06.04-.1.09-.15l1.89-2.19,1.4.35c.86.22,1.71.29,2.59.15,1.93-.29,2.96-1.64,3.6-3.4.27-.74.47-1.47.61-2.24l.48-2.7.58-3.25.83-4.62.79-4.46.53-3.01h-3.97s0-1.68,0-1.68c.2-.06.37-.05.57-.03h3.71c.44-2.47,1.59-4.72,3.29-6.53s4.07-3.01,6.61-3.29c1.15-.13,2.28-.14,3.44-.06l.76.12-2.39,2.37-.82-.41c-1.81-.89-4.16-.6-5.5.94-.85.98-1.4,2.11-1.63,3.38l-.47,2.62c-.05.3-.14.57-.13.86Z"/>
          <path class="cls-5" d="M76.84,39.25H7.94c.68-.21,1.37-.51,2-.9h67.32s-.41.9-.41.9Z"/>
          <path class="cls-5" d="M58.93,31.46l.57-2.99.39-2.15-1.03,1.71c-.56.82-1.1,1.61-1.74,2.37s-1.28,1.42-2,2.07l-1.22.98c-.81.65-2.31,1.3-3.4,1.28-.72-.02-1.35-.33-1.83-.86-.82-.92-1.1-2.18-1.14-3.41-.03-1.04.13-2.03.38-3.03.4-1.55,1.06-2.95,1.96-4.27s1.97-2.41,3.21-3.39,2.46-1.68,3.94-2.04c1.11-.31,2.21-.43,3.37-.46,1.52-.04,3,.04,4.53.17l-1.37,6.54-1.06,5.04-.4,1.97c-.09.42-.11.84-.03,1.26s.37.69.78.69c.95-.01,2.27-1.09,3.01-1.77l.59-.55.99-1.01-.19,1.27c-.27.41-.59.75-.94,1.1-.87.84-1.82,1.58-2.91,2.12-.75.37-1.52.58-2.34.6-.87.02-1.6-.42-1.92-1.23-.24-.62-.32-1.3-.19-2ZM54.92,30.84l1.65-1.79,1.82-2.33c.56-.72,1.03-1.49,1.44-2.3l.97-1.93.54-2.75-1.38-.36c-.83-.22-1.66-.3-2.52-.28-1.03.02-2.02.32-2.81.99-1.15,1-2.39,3.71-2.9,5.23-.54,1.6-1.52,5.39-.37,6.56.33.34.85.43,1.33.28.82-.26,1.63-.66,2.23-1.31Z"/>
          <polygon class="cls-5" points="70.52 12.02 71.05 12.01 71.44 11.98 71.75 12 78.07 12.01 82.79 12.02 82.09 13.72 18.36 13.72 15.59 13.69 15.59 12.05 18.73 12.02 20.04 12.01 47.34 12.01 54.89 12 66.69 12 70.52 12.02"/>
          <path class="cls-5" d="M73.12,37.07c-.46-.07-.84-.27-1.19-.56-.43-.36-.72-.8-.85-1.35-.19-.82-.19-1.64-.03-2.48l.7-3.7,1.45-7.54c.1-.54.22-1.03.14-1.56s-.43-.97-.98-1.07-1.07-.05-1.61.09l-1.77.47c-.03-.42.04-.79.08-1.17.14-.13.3-.17.49-.22l6.12-1.93,2.93-.92-3.5,17.26c-.13.66-.2,1.44.09,2,.37.74,1.31.53,2.05.17s1.34-.83,1.95-1.34l.69-.58c.14-.15.24-.31.46-.41v1.4s-2.47,1.92-2.47,1.92c-.77.6-1.66.98-2.57,1.29-.71.24-1.43.31-2.16.2Z"/>
          <path class="cls-5" d="M42.27,31.66c-1.23,1.86-3.54,2.82-5.75,2.91-1.73.07-3.41-.27-5.02-.92l.92-.98,1.17-1.21.85.48c.7.4,1.45.65,2.23.86.35.09.68.11,1.04.12.6.03,1.17-.07,1.69-.36.74-.4,1.14-1.17,1.1-2.02-.05-.93-.49-1.73-1.11-2.41l-2.65-2.96c-.71-.79-1.17-1.65-1.22-2.73-.04-.8.1-1.57.54-2.26s.92-1.23,1.54-1.71c1.59-1.13,3.5-1.61,5.43-1.42.81.08,1.56.23,2.32.56l-.55,2.47-.25.95h-1.04c.17-.83.17-1.47-.44-2.04s-1.32-.75-2.11-.76c-.84,0-1.63.2-2.27.75-.86.75-.89,1.81-.45,2.82.18.41.4.73.69,1.07l3.13,3.82c1.17,1.43,1.22,3.42.21,4.95Z"/>
          <path class="cls-5" d="M28.72,29.7c-.16,1.84-1.54,3.27-3.14,4.06-2.26,1.12-5.3.99-7.65.14l-.68-.27,2.1-2.17c1.32.79,2.86,1.5,4.42,1.46.95-.04,1.98-.5,2.3-1.4.45-1.28-.06-2.41-.93-3.39l-3.06-3.44c-1.26-1.54-1.07-3.77.21-5.23.22-.25.37-.45.62-.66.29-.24.56-.49.91-.68,1.94-1.09,3.91-1.34,6.1-.9.42.08.81.21,1.19.4l-.16.63-.58,2.59c-.02.1-.06.19-.18.19h-.9c-.02-.09,0-.17.02-.27.21-.89-.21-1.76-1.05-2.17-1.06-.52-2.34-.47-3.38.09-1.25.67-1.44,1.99-.83,3.24.09.17.13.33.26.49l3.56,4.37c.67.82.95,1.88.86,2.92Z"/>
          <path class="cls-5" d="M71.44,11.98l-.39.04h-.54c-.02-.08-.04-.17-.02-.28,1.1-.06,2.38-.34,3.19-1.15-.38-1.83.31-3.29,1.45-4.7l1.66-1.8,1.45-1.52.99-1.53.46-1.02c.06.37.06.69.04,1.03l-.11,2.04c-.12,2.26-.87,4.96-2.55,6.52-.67.62-1.48,1.04-2.38,1.15l-.8.1c-.68.68-1.57.97-2.44,1.13Z"/>
          <path class="cls-5" d="M71.18,7.93c.85-.16,1.62.39,1.77,1.19s-.38,1.58-1.19,1.74-1.6-.36-1.76-1.18.33-1.59,1.18-1.75Z"/>
        </g>
        <text class="cls-4" transform="translate(91.48 32.51)"><tspan class="cls-6" x="0" y="0">L</tspan><tspan class="cls-3" x="9.11" y="0">ic N</tspan><tspan class="cls-7" x="39.12" y="0">o</tspan><tspan class="cls-16" x="49.15" y="0">:</tspan><tspan class="cls-14" x="54.48" y="0"> </tspan><tspan class="cls-2" x="58.33" y="0">2</tspan><tspan class="cls-9" x="68.22" y="0">1</tspan><tspan class="cls-12" x="74.61" y="0">2</tspan><tspan class="cls-1" x="84.33" y="0">2</tspan><tspan class="cls-18" x="93.68" y="0">5</tspan><tspan class="cls-8" x="103.8" y="0">1</tspan><tspan class="cls-3" x="110.03" y="0">8</tspan><tspan class="cls-1" x="120.24" y="0">8</tspan><tspan x="130.57" y="0">000</tspan><tspan class="cls-15" x="161.64" y="0">9</tspan><tspan class="cls-13" x="171.99" y="0">7</tspan><tspan class="cls-14" x="181.37" y="0">1</tspan></text>
      </g>
      <line class="cls-17" x1="1.43" y1="62.43" x2="280.72" y2="62.43"/>
    </g>
  </g>
</svg>